<?xml version="1.0" encoding="UTF-8"?><svg id="Livello_1" xmlns="http://www.w3.org/2000/svg" viewBox="0 0 750.88 141.88"><defs><style>.cls-1{fill:#487cff;}</style></defs><g><path class="cls-1" d="M1.93,92.69l11.69-7.06c1.8-1.09,4.14-.59,5.34,1.14,.4,.57,.74,1.06,1.04,1.45,.73,.98,1.66,1.93,2.81,2.86,5.31,4.63,11.6,6.95,18.89,6.95,5.93,0,10.85-1.48,14.75-4.44,3.9-2.96,5.85-6.62,5.85-10.99,0-3.22-.99-5.66-2.97-7.32-1.25-1.14-3.1-2.18-5.54-3.12-2.45-.93-5.98-2-10.61-3.2-4.63-1.19-8.09-2.13-10.38-2.8-2.29-.67-4.68-1.58-7.18-2.73-10.82-4.99-16.23-13.04-16.23-24.16s4.39-20.31,13.19-27.89C31.37,3.79,42.16,0,54.96,0c11.76,0,21.33,3.38,28.72,10.15,1.56,1.35,2.89,2.68,3.98,3.98l1.57,1.88c1.56,1.87,1.1,4.68-.97,5.96l-11.03,6.79c-1.74,1.07-4.02,.65-5.26-.98-5.07-6.66-11.63-9.98-19.66-9.98-5.31,0-9.75,1.35-13.34,4.05s-5.38,6.08-5.38,10.13c0,2.91,1.04,5.3,3.12,7.17,.62,.52,1.3,1.01,2.03,1.48,.73,.47,1.59,.91,2.58,1.32,.99,.42,2.78,1.01,5.38,1.79,2.6,.78,5.36,1.53,8.27,2.26,2.91,.73,5.75,1.48,8.51,2.26,2.76,.78,4.97,1.53,6.63,2.26,5.62,2.29,9.94,5.58,12.95,9.9,3.02,4.31,4.53,9.37,4.53,15.19,0,11.63-4.63,21.45-13.89,29.45-9.26,8-20.71,12-34.34,12-12.8,0-23.47-3.68-32-11.03-1.87-1.55-3.38-3.05-4.53-4.5-.67-.84-1.42-1.97-2.27-3.38-1.13-1.88-.51-4.33,1.37-5.46Z"/><path class="cls-1" d="M85.41,138.58l1.37-11.28c.18-1.47,1.54-2.49,3.01-2.28,1.54,.21,3.05,.32,4.51,.32,4.89,0,9.08-1.64,12.56-4.92,3.48-3.28,5.23-7.2,5.23-11.78,0-.75-.04-1.38-.13-1.88-.02-.11-.04-.21-.07-.31-.5-1.7-.9-3.21-1.2-4.52l-16.52-66.97c-.41-1.66,.85-3.27,2.56-3.27h19.83c1.24,0,2.32,.87,2.58,2.08l9.47,44.03c.53,2.47,3.9,2.85,4.96,.56l21.09-45.14c.43-.93,1.36-1.52,2.39-1.52h11.87c1.95-.01,3.23,2.04,2.37,3.79l-36.55,74.08c-3.33,6.87-5.72,11.47-7.18,13.81-1.46,2.34-3.43,4.92-5.93,7.73-3.43,3.75-7.23,6.48-11.39,8.19-4.16,1.72-9.16,2.58-14.98,2.58-2.33,0-4.81-.12-7.43-.35-1.48-.13-2.57-1.47-2.39-2.95Z"/><path class="cls-1" d="M166.4,111L179.29,5.38c.21-1.74,1.68-3.04,3.43-3.04h16.59c2.08,0,3.69,1.82,3.43,3.88l-13.04,105.62c-.21,1.73-1.69,3.03-3.43,3.03h-16.45c-2.08,0-3.68-1.82-3.43-3.88Z"/><path class="cls-1" d="M280.51,78.66h-46.52c-1.96,0-3.61,1.48-3.81,3.43l-.09,.82c-.02,.16-.03,.32-.02,.48,.04,5.36,1.42,9.54,4.13,12.54,2.76,3.05,6.58,4.57,11.47,4.57,7.4,0,13.45-3.96,18.15-11.88,.95-1.59,2.94-2.23,4.67-1.55l8.42,3.32c2.26,.89,3.12,3.62,1.81,5.66-9.02,14-21.49,21-37.42,21-10.82,0-19.3-3.17-25.44-9.5-6.14-6.34-9.21-15.16-9.21-26.49,0-14.64,4.29-26.93,12.88-36.85,8.58-9.92,19.22-14.88,31.92-14.88,10.4,0,18.57,3.33,24.5,9.99,5.93,6.66,8.9,15.92,8.9,27.78,0,2.18-.05,3.9-.16,5.15-.06,.74-.2,1.79-.4,3.14-.29,1.87-1.9,3.25-3.79,3.25Zm-30.62-34.03c-4.58,0-8.48,1.82-11.71,5.46-2.36,2.67-4.11,6.09-5.24,10.26-.67,2.45,1.14,4.88,3.69,4.88h22.06c2.06,0,3.75-1.63,3.83-3.68v-.37c.01-11.03-4.2-16.54-12.63-16.54Z"/><path class="cls-1" d="M291.97,111.57l9.43-77.3c.18-1.48,1.44-2.59,2.93-2.59h16.95c1.79,0,3.17,1.58,2.92,3.35h0c-.36,2.61,2.62,4.36,4.7,2.74,7.26-5.63,14.74-8.44,22.45-8.44,6.45,0,11.5,1.77,15.14,5.31,3.64,3.54,5.46,8.38,5.46,14.52,0,2.5-.26,5.83-.78,9.99l-6.4,53.13c-.18,1.48-1.43,2.59-2.93,2.59h-17.47c-1.77,0-3.14-1.55-2.93-3.3l5.84-48.28c0-.06,.01-.11,.02-.17l.45-7.1c0-3.02-.83-5.36-2.49-7.02-1.66-1.66-3.94-2.5-6.85-2.5-4.26,0-8.07,1.69-11.44,5.07-3.37,3.38-5.37,7.57-5.99,12.56l-5.91,48.14c-.18,1.48-1.44,2.59-2.93,2.59h-17.26c-1.77,0-3.14-1.55-2.93-3.3Z"/><path class="cls-1" d="M380.23,45.21l1.33-10.93c.18-1.49,1.44-2.6,2.94-2.6h6.86c1.4,0,2.61-.97,2.9-2.34l3.38-15.91c.29-1.37,1.5-2.35,2.9-2.35h15.81c1.79,0,3.17,1.57,2.94,3.34l-1.79,13.92c-.23,1.77,1.15,3.34,2.94,3.34h11.39c1.77,0,3.15,1.55,2.94,3.31l-1.31,10.93c-.18,1.49-1.44,2.61-2.94,2.61h-13.16c-1.5,0-2.76,1.12-2.94,2.61l-4.06,34.38-.6,5.73c-.01,.13-.02,.27-.02,.41,.09,5.27,3.52,7.91,10.3,7.91,1.08,0,2.11-.06,3.11-.17,1.9-.22,3.5,1.4,3.27,3.29l-1.27,10.47c-.16,1.29-1.14,2.34-2.42,2.56-5.21,.89-10.06,1.33-14.55,1.33-15.19,0-22.79-5.2-22.79-15.61,0-1.25,.05-2.68,.16-4.29,.1-1.61,.36-3.72,.78-6.32l4.75-38.98c.21-1.76-1.16-3.32-2.94-3.32h-4.96c-1.78,0-3.15-1.56-2.94-3.32Z"/><path class="cls-1" d="M433.48,110.73l12.83-105.14c.23-1.86,1.8-3.25,3.67-3.25h16.11c2.22,0,3.94,1.95,3.67,4.15l-12.98,105.14c-.23,1.85-1.8,3.25-3.67,3.25h-15.97c-2.22,0-3.94-1.94-3.67-4.15Z"/><path class="cls-1" d="M462.26,137.88l1.2-9.91c.22-1.8,1.85-3.11,3.65-2.89,1.35,.16,2.66,.25,3.95,.25,4.89,0,9.08-1.64,12.56-4.92,3.49-3.28,5.23-7.2,5.23-11.78,0-.73-.04-1.34-.12-1.84-.02-.13-.06-.26-.09-.39-.49-1.69-.89-3.18-1.19-4.48l-16.31-66.13c-.52-2.09,1.07-4.11,3.22-4.11h18.42c1.56,0,2.91,1.09,3.24,2.62l8.93,41.53c.67,3.1,4.9,3.58,6.24,.71l20.05-42.92c.54-1.16,1.71-1.91,3-1.91h10.35c2.46-.01,4.06,2.57,2.97,4.77l-36.07,73.1c-3.33,6.87-5.72,11.47-7.18,13.81-1.46,2.34-3.43,4.92-5.93,7.73-3.43,3.75-7.23,6.48-11.39,8.19-4.16,1.72-9.16,2.58-14.98,2.58-2.13,0-4.37-.1-6.74-.29-1.86-.15-3.22-1.84-3-3.7Z"/></g><g><path class="cls-1" d="M545.41,112.58l12.99-106.46c.25-2.04,1.98-3.57,4.03-3.57h20.07c1.56,0,2.99,.9,3.66,2.31l27.7,57.79c1.75,3.66,7.2,2.77,7.69-1.26l6.77-55.27c.25-2.04,1.98-3.57,4.03-3.57h11.52c2.44,0,4.33,2.14,4.03,4.56l-13.14,106.46c-.25,2.04-1.98,3.56-4.03,3.56h-16.58c-1.56,0-2.99-.9-3.66-2.31l-30.26-63.22c-1.75-3.66-7.19-2.77-7.69,1.25l-7.54,60.71c-.25,2.03-1.98,3.56-4.03,3.56h-11.53c-2.44,0-4.33-2.13-4.03-4.55Z"/><path class="cls-1" d="M747.73,37.85l-16.5,2.53c-2.13,.33-4.07-1.23-4.26-3.38-.46-5.29-1.89-9.52-4.28-12.68-2.97-3.92-7.21-5.88-12.71-5.88-3.6,0-6.99,.9-10.17,2.7-3.18,1.8-5.88,4.39-8.11,7.77-3.39,5.08-6.04,11.61-7.95,19.59-1.91,7.98-2.86,16.42-2.86,25.3,0,19.61,7.88,28.4,23.64,26.36,.2-.03,.41-.07,.6-.12,7.26-1.97,12.22-6,14.86-12.07,.85-1.68,1.56-3.66,2.15-5.92,.24-.95,.47-1.94,.67-2.96,.44-2.28-1.33-4.38-3.65-4.38h-11.02c-2.23,0-3.95-1.95-3.68-4.16l1.32-10.85c.23-1.86,1.81-3.26,3.68-3.26h36.21c2.23,0,3.96,1.96,3.68,4.17l-6.7,53.29c-.23,1.86-1.81,3.25-3.68,3.25h-7.39c-1.75,0-3.26-1.22-3.63-2.93l-.34-1.59c-.59-2.75-3.87-3.84-6.03-2.04-7.05,5.86-15.95,8.79-26.69,8.79-13.14,0-23.36-4.02-30.67-12.06-7.31-8.04-10.97-19.36-10.97-33.97,0-21.16,5.54-38.65,16.61-52.46C680.92,7.07,694.88,.16,711.72,.16c11.65,0,21.11,3.31,28.37,9.93,6.54,5.97,10.13,13.94,10.78,23.91,.12,1.9-1.27,3.56-3.14,3.85Z"/></g></svg>